# Blender v2.91.2 OBJ File: 'L_obstaculo.blend'
# www.blender.org
mtllib l_obstaculo.mtl
o Text.001_Text.002
v -5.476446 1.483204 -1.004015
v -5.476446 1.483204 0.000000
v -0.844285 1.483204 0.000000
v -0.844285 1.483204 -7.781117
v -1.962393 1.483204 -7.781117
v -1.962393 1.483204 -1.004015
v -5.476446 -1.483204 -1.004015
v -5.476446 -1.483204 0.000000
v -0.844285 -1.483204 0.000000
v -0.844285 -1.483204 -7.781117
v -1.962393 -1.483204 -7.781117
v -1.962393 -1.483204 -1.004015
v -5.476446 -1.483204 -1.004015
v -5.476446 1.483204 -1.004015
v -5.476446 -1.483204 0.000000
v -5.476446 1.483204 0.000000
v -0.844285 -1.483204 0.000000
v -0.844285 1.483204 0.000000
v -0.844285 -1.483204 -7.781117
v -0.844285 1.483204 -7.781117
v -1.962393 -1.483204 -7.781117
v -1.962393 1.483204 -7.781117
v -1.962393 -1.483204 -1.004015
v -1.962393 1.483204 -1.004015
vt 0.400000 0.000000
vt 0.600000 0.000000
vt 0.800000 0.000000
vt 1.000000 0.000000
vt 0.000000 0.000000
vt 0.200000 0.000000
vt 0.800000 0.000000
vt 0.600000 0.000000
vt 0.400000 0.000000
vt 1.000000 0.000000
vt 0.000000 0.000000
vt 0.200000 0.000000
vt 0.166667 1.000000
vt 0.000000 1.000000
vt 0.000000 0.000000
vt 0.333333 1.000000
vt 0.166667 0.000000
vt 0.500000 1.000000
vt 0.333333 0.000000
vt 0.666667 1.000000
vt 0.500000 0.000000
vt 0.833333 1.000000
vt 0.666667 0.000000
vt 1.000000 1.000000
vt 0.833333 0.000000
vt 1.000000 0.000000
vn 0.0000 1.0000 0.0000
vn 0.0000 -1.0000 0.0000
vn -0.7071 0.0000 0.7071
vn -0.7071 0.0000 -0.7071
vn 0.7071 0.0000 0.7071
vn 0.7071 0.0000 -0.7071
usemtl Metal.001
s off
f 3/1/1 4/2/1 5/3/1
f 3/1/1 5/3/1 6/4/1
f 3/1/1 6/4/1 1/5/1
f 3/1/1 1/5/1 2/6/1
f 11/7/2 10/8/2 9/9/2
f 12/10/2 11/7/2 9/9/2
f 7/11/2 12/10/2 9/9/2
f 8/12/2 7/11/2 9/9/2
s 1
f 16/13/3 14/14/4 13/15/4
f 18/16/5 16/13/3 15/17/3
f 20/18/6 18/16/5 17/19/5
f 22/20/4 20/18/6 19/21/6
f 24/22/4 22/20/4 21/23/4
f 14/24/4 24/22/4 23/25/4
f 16/13/3 13/15/4 15/17/3
f 18/16/5 15/17/3 17/19/5
f 20/18/6 17/19/5 19/21/6
f 22/20/4 19/21/6 21/23/4
f 24/22/4 21/23/4 23/25/4
f 14/24/4 23/25/4 13/26/4
