# Blender v2.91.2 OBJ File: 'Pieza_triangular_arriba.blend'
# www.blender.org
mtllib triangulo_madera.mtl
o Cube.001
v 3.042377 -0.507013 -1.462649
v 3.042377 0.507013 -1.462649
v -1.367504 -0.507013 -1.557703
v -1.367504 0.507013 -1.557703
v -1.471191 -0.507013 3.252697
v -1.471191 0.507013 3.252697
vt 0.707107 0.707107
vt 0.707107 0.353553
vt 0.353553 0.353553
vt 0.707107 0.353553
vt 0.707107 0.000000
vt 0.353553 0.000000
vt 0.000000 0.750000
vt 0.250000 1.000000
vt 0.250000 0.500000
vt 0.957107 0.000000
vt 0.707107 0.250000
vt 0.957107 0.500000
vt 0.000000 0.000000
vt 0.000000 0.500000
vt 0.353553 0.500000
vt 0.353553 0.707107
vt 0.353553 0.353553
vt 0.353553 0.000000
vn 0.0215 0.0000 -0.9998
vn -0.9998 0.0000 -0.0215
vn 0.0000 -1.0000 0.0000
vn 0.0000 1.0000 0.0000
vn 0.7224 0.0000 0.6915
usemtl Madera.001
s off
f 2/1/1 1/2/1 3/3/1
f 4/4/2 3/5/2 5/6/2
f 3/7/3 1/8/3 5/9/3
f 2/10/4 4/11/4 6/12/4
f 5/13/5 1/14/5 2/15/5
f 2/1/1 3/3/1 4/16/1
f 4/4/2 5/6/2 6/17/2
f 5/13/5 2/15/5 6/18/5
